<svg width="94" height="95" viewBox="0 0 94 95" fill="none" xmlns="http://www.w3.org/2000/svg">
<path d="M56.1076 2.64281C59.2249 -0.998817 65.1843 1.40893 64.897 6.19395L63.4055 31.0361C63.2768 33.1803 64.5319 35.1671 66.5235 35.9717L89.962 45.4415C94.4899 47.2709 93.9789 53.84 89.2225 54.9472L65.2175 60.5351C63.0619 61.0369 61.4927 62.896 61.3601 65.1052L59.8977 89.4624C59.6083 94.2826 53.3311 95.9329 50.7084 91.8783L36.8953 70.5233C35.7501 68.7527 33.6172 67.891 31.5634 68.3691L6.79265 74.1352C2.08951 75.23 -1.27954 69.6823 1.86068 66.0139L17.7287 47.477C19.1679 45.7957 19.3306 43.3682 18.1286 41.5099L4.74247 20.815C2.09013 16.7145 6.28584 11.6341 10.8138 13.4635L34.2522 22.9333C36.2438 23.7379 38.5268 23.1806 39.9237 21.5489L56.1076 2.64281Z" fill="url(#paint0_linear_8_40)"/>
<defs>
<linearGradient id="paint0_linear_8_40" x1="39.4162" y1="-7.4588" x2="57.8348" y2="116.465" gradientUnits="userSpaceOnUse">
<stop stop-color="#FED43D"/>
<stop offset="1" stop-color="#DD9A17"/>
</linearGradient>
</defs>
</svg>
