<svg width="654" height="437" viewBox="0 0 654 437" fill="none" xmlns="http://www.w3.org/2000/svg">
<rect width="654" height="437" fill="#D1D1D1"/>
<path d="M174.56 239.6C171.08 239.6 168.1 238.78 165.62 237.14C163.18 235.46 161.32 233.06 160.04 229.94C158.76 226.82 158.12 223.04 158.12 218.6C158.12 215 158.52 211.82 159.32 209.06C160.16 206.26 161.36 203.9 162.92 201.98C164.48 200.06 166.38 198.6 168.62 197.6C170.9 196.6 173.46 196.1 176.3 196.1C178.06 196.1 179.84 196.38 181.64 196.94C183.48 197.46 185.2 198.26 186.8 199.34C187.44 199.74 187.86 200.26 188.06 200.9C188.26 201.54 188.28 202.18 188.12 202.82C188 203.42 187.72 203.96 187.28 204.44C186.88 204.88 186.36 205.16 185.72 205.28C185.08 205.36 184.38 205.18 183.62 204.74C182.26 203.94 180.98 203.38 179.78 203.06C178.58 202.74 177.38 202.58 176.18 202.58C173.86 202.58 171.9 203.12 170.3 204.2C168.7 205.28 167.48 206.9 166.64 209.06C165.84 211.22 165.44 213.92 165.44 217.16V221.66H164.72C165.04 219.62 165.7 217.88 166.7 216.44C167.74 214.96 169.06 213.84 170.66 213.08C172.26 212.28 174.04 211.88 176 211.88C178.44 211.88 180.6 212.46 182.48 213.62C184.36 214.78 185.84 216.38 186.92 218.42C188 220.46 188.54 222.8 188.54 225.44C188.54 228.16 187.94 230.6 186.74 232.76C185.58 234.88 183.94 236.56 181.82 237.8C179.74 239 177.32 239.6 174.56 239.6ZM174.14 233.48C175.58 233.48 176.84 233.16 177.92 232.52C179.04 231.88 179.9 230.98 180.5 229.82C181.1 228.62 181.4 227.26 181.4 225.74C181.4 224.18 181.1 222.82 180.5 221.66C179.9 220.5 179.04 219.6 177.92 218.96C176.84 218.28 175.58 217.94 174.14 217.94C172.7 217.94 171.44 218.28 170.36 218.96C169.28 219.6 168.42 220.5 167.78 221.66C167.18 222.82 166.88 224.18 166.88 225.74C166.88 227.26 167.18 228.62 167.78 229.82C168.42 230.98 169.28 231.88 170.36 232.52C171.44 233.16 172.7 233.48 174.14 233.48ZM212.337 239.6C210.217 239.6 208.057 239.32 205.857 238.76C203.657 238.2 201.637 237.34 199.797 236.18C199.037 235.7 198.517 235.14 198.237 234.5C197.997 233.82 197.937 233.16 198.057 232.52C198.217 231.84 198.517 231.28 198.957 230.84C199.437 230.36 199.997 230.08 200.637 230C201.317 229.92 202.057 230.1 202.857 230.54C204.337 231.38 205.837 232.02 207.357 232.46C208.877 232.9 210.497 233.12 212.217 233.12C213.897 233.12 215.337 232.82 216.537 232.22C217.737 231.62 218.657 230.78 219.297 229.7C219.937 228.62 220.257 227.36 220.257 225.92C220.257 223.68 219.577 221.88 218.217 220.52C216.857 219.12 214.997 218.42 212.637 218.42C211.357 218.42 210.117 218.64 208.917 219.08C207.717 219.48 206.537 220.2 205.377 221.24C205.017 221.56 204.557 221.88 203.997 222.2C203.437 222.48 202.837 222.62 202.197 222.62C201.197 222.62 200.437 222.36 199.917 221.84C199.397 221.32 199.137 220.6 199.137 219.68V200.06C199.137 198.98 199.417 198.16 199.977 197.6C200.577 197 201.417 196.7 202.497 196.7H222.237C223.317 196.7 224.137 196.98 224.697 197.54C225.297 198.06 225.597 198.84 225.597 199.88C225.597 200.88 225.297 201.66 224.697 202.22C224.137 202.78 223.317 203.06 222.237 203.06H206.637V216.5H204.657C205.697 215.1 207.077 214.02 208.797 213.26C210.517 212.5 212.397 212.12 214.437 212.12C217.117 212.12 219.437 212.7 221.397 213.86C223.397 214.98 224.937 216.56 226.017 218.6C227.137 220.6 227.697 222.94 227.697 225.62C227.697 228.38 227.077 230.82 225.837 232.94C224.597 235.02 222.817 236.66 220.497 237.86C218.217 239.02 215.497 239.6 212.337 239.6ZM250.953 239.6C245.953 239.6 242.133 237.72 239.493 233.96C236.853 230.16 235.533 224.76 235.533 217.76C235.533 213.04 236.113 209.08 237.273 205.88C238.473 202.64 240.213 200.2 242.493 198.56C244.813 196.92 247.633 196.1 250.953 196.1C255.993 196.1 259.813 197.94 262.413 201.62C265.053 205.3 266.373 210.66 266.373 217.7C266.373 222.38 265.773 226.36 264.573 229.64C263.413 232.88 261.693 235.36 259.413 237.08C257.133 238.76 254.313 239.6 250.953 239.6ZM250.953 233.3C253.673 233.3 255.673 232.04 256.953 229.52C258.273 227 258.933 223.06 258.933 217.7C258.933 212.34 258.273 208.46 256.953 206.06C255.673 203.62 253.673 202.4 250.953 202.4C248.273 202.4 246.273 203.62 244.953 206.06C243.633 208.46 242.973 212.34 242.973 217.7C242.973 223.06 243.633 227 244.953 229.52C246.273 232.04 248.273 233.3 250.953 233.3ZM281.17 234.32C280.53 234.96 279.85 235.26 279.13 235.22C278.45 235.18 277.87 234.92 277.39 234.44C276.91 233.92 276.65 233.32 276.61 232.64C276.57 231.92 276.87 231.24 277.51 230.6L286.21 221.9L277.33 213.02C276.81 212.5 276.51 211.96 276.43 211.4C276.39 210.8 276.49 210.28 276.73 209.84C277.01 209.36 277.39 208.98 277.87 208.7C278.35 208.42 278.87 208.32 279.43 208.4C280.03 208.48 280.59 208.78 281.11 209.3L289.93 218.12L298.75 209.3C299.39 208.66 300.07 208.36 300.79 208.4C301.51 208.44 302.11 208.72 302.59 209.24C303.11 209.72 303.39 210.3 303.43 210.98C303.51 211.66 303.21 212.34 302.53 213.02L293.65 221.9L302.35 230.6C302.87 231.12 303.17 231.66 303.25 232.22C303.33 232.78 303.23 233.3 302.95 233.78C302.67 234.26 302.29 234.64 301.81 234.92C301.37 235.16 300.87 235.26 300.31 235.22C299.75 235.14 299.21 234.84 298.69 234.32L289.93 225.56L281.17 234.32ZM335.686 239.48C334.486 239.48 333.546 239.16 332.866 238.52C332.186 237.84 331.846 236.88 331.846 235.64V230.96H317.026C315.786 230.96 314.786 230.7 314.026 230.18C313.306 229.66 312.946 228.84 312.946 227.72C312.946 227.08 313.106 226.38 313.426 225.62C313.786 224.86 314.406 223.86 315.286 222.62L331.726 198.8C332.286 197.96 332.906 197.32 333.586 196.88C334.266 196.44 335.046 196.22 335.926 196.22C336.966 196.22 337.826 196.54 338.506 197.18C339.186 197.78 339.526 198.74 339.526 200.06V224.6H342.466C343.626 224.6 344.486 224.88 345.046 225.44C345.646 225.96 345.946 226.74 345.946 227.78C345.946 228.82 345.646 229.62 345.046 230.18C344.486 230.7 343.626 230.96 342.466 230.96H339.526V235.64C339.526 236.88 339.186 237.84 338.506 238.52C337.826 239.16 336.886 239.48 335.686 239.48ZM331.846 224.6V205.88H333.586L319.426 226.64V224.6H331.846ZM357.863 239C356.583 239 355.643 238.72 355.043 238.16C354.483 237.56 354.203 236.7 354.203 235.58C354.203 234.9 354.383 234.24 354.743 233.6C355.103 232.96 355.623 232.28 356.303 231.56L368.363 218.72C370.203 216.8 371.523 215.06 372.323 213.5C373.123 211.9 373.523 210.3 373.523 208.7C373.523 206.7 372.883 205.18 371.603 204.14C370.363 203.1 368.543 202.58 366.143 202.58C364.783 202.58 363.423 202.78 362.063 203.18C360.703 203.54 359.323 204.18 357.923 205.1C357.203 205.58 356.523 205.78 355.883 205.7C355.283 205.62 354.743 205.36 354.263 204.92C353.823 204.48 353.523 203.94 353.363 203.3C353.203 202.66 353.223 202.02 353.423 201.38C353.663 200.7 354.143 200.12 354.863 199.64C356.583 198.48 358.503 197.6 360.623 197C362.783 196.4 364.943 196.1 367.103 196.1C370.143 196.1 372.703 196.56 374.783 197.48C376.863 198.4 378.443 199.74 379.523 201.5C380.603 203.26 381.143 205.4 381.143 207.92C381.143 209.6 380.863 211.24 380.303 212.84C379.783 214.44 378.963 216.06 377.843 217.7C376.763 219.34 375.343 221.08 373.583 222.92L362.303 234.68V232.64H379.943C381.023 232.64 381.843 232.9 382.403 233.42C382.963 233.94 383.243 234.72 383.243 235.76C383.243 236.8 382.963 237.6 382.403 238.16C381.843 238.72 381.023 239 379.943 239H357.863ZM406.859 239.6C401.859 239.6 398.039 237.72 395.399 233.96C392.759 230.16 391.439 224.76 391.439 217.76C391.439 213.04 392.019 209.08 393.179 205.88C394.379 202.64 396.119 200.2 398.399 198.56C400.719 196.92 403.539 196.1 406.859 196.1C411.899 196.1 415.719 197.94 418.319 201.62C420.959 205.3 422.279 210.66 422.279 217.7C422.279 222.38 421.679 226.36 420.479 229.64C419.319 232.88 417.599 235.36 415.319 237.08C413.039 238.76 410.219 239.6 406.859 239.6ZM406.859 233.3C409.579 233.3 411.579 232.04 412.859 229.52C414.179 227 414.839 223.06 414.839 217.7C414.839 212.34 414.179 208.46 412.859 206.06C411.579 203.62 409.579 202.4 406.859 202.4C404.179 202.4 402.179 203.62 400.859 206.06C399.539 208.46 398.879 212.34 398.879 217.7C398.879 223.06 399.539 227 400.859 229.52C402.179 232.04 404.179 233.3 406.859 233.3ZM435.456 250.28C434.256 250.28 433.336 249.96 432.696 249.32C432.056 248.68 431.736 247.74 431.736 246.5V212.96C431.736 211.72 432.056 210.78 432.696 210.14C433.336 209.5 434.236 209.18 435.396 209.18C436.596 209.18 437.516 209.5 438.156 210.14C438.796 210.78 439.116 211.72 439.116 212.96V217.64L438.456 215.84C439.056 213.8 440.276 212.16 442.116 210.92C443.996 209.68 446.176 209.06 448.656 209.06C451.216 209.06 453.456 209.68 455.376 210.92C457.336 212.16 458.856 213.92 459.936 216.2C461.016 218.44 461.556 221.14 461.556 224.3C461.556 227.42 461.016 230.14 459.936 232.46C458.856 234.74 457.356 236.5 455.436 237.74C453.516 238.98 451.256 239.6 448.656 239.6C446.216 239.6 444.076 239 442.236 237.8C440.396 236.56 439.156 234.96 438.516 233H439.236V246.5C439.236 247.74 438.896 248.68 438.216 249.32C437.576 249.96 436.656 250.28 435.456 250.28ZM446.556 233.9C448.036 233.9 449.336 233.54 450.456 232.82C451.576 232.1 452.436 231.04 453.036 229.64C453.676 228.2 453.996 226.42 453.996 224.3C453.996 221.1 453.316 218.72 451.956 217.16C450.596 215.56 448.796 214.76 446.556 214.76C445.076 214.76 443.776 215.12 442.656 215.84C441.536 216.52 440.656 217.58 440.016 219.02C439.416 220.42 439.116 222.18 439.116 224.3C439.116 227.46 439.796 229.86 441.156 231.5C442.516 233.1 444.316 233.9 446.556 233.9ZM471.991 239.3C471.111 239.3 470.371 239.06 469.771 238.58C469.211 238.06 468.911 237.4 468.871 236.6C468.871 235.8 469.211 234.96 469.891 234.08L479.611 222.08V225.62L470.491 214.4C469.771 213.52 469.431 212.68 469.471 211.88C469.511 211.08 469.811 210.44 470.371 209.96C470.971 209.44 471.711 209.18 472.591 209.18C473.511 209.18 474.271 209.34 474.871 209.66C475.511 209.98 476.091 210.48 476.611 211.16L483.811 220.4H481.171L488.431 211.16C488.991 210.48 489.571 209.98 490.171 209.66C490.771 209.34 491.511 209.18 492.391 209.18C493.311 209.18 494.051 209.44 494.611 209.96C495.171 210.48 495.451 211.14 495.451 211.94C495.491 212.74 495.151 213.58 494.431 214.46L485.371 225.56V222.2L495.091 234.08C495.811 234.92 496.151 235.74 496.111 236.54C496.071 237.34 495.751 238 495.151 238.52C494.591 239.04 493.851 239.3 492.931 239.3C492.051 239.3 491.311 239.14 490.711 238.82C490.111 238.5 489.531 238 488.971 237.32L481.171 227.48H483.691L475.951 237.32C475.431 237.96 474.871 238.46 474.271 238.82C473.671 239.14 472.911 239.3 471.991 239.3Z" fill="#595959"/>
<path d="M249.825 392.315C247.375 392.315 245.275 391.802 243.525 390.775C241.775 389.748 240.422 388.29 239.465 386.4C238.532 384.487 238.065 382.235 238.065 379.645C238.065 377.708 238.333 375.97 238.87 374.43C239.407 372.867 240.177 371.537 241.18 370.44C242.183 369.32 243.408 368.468 244.855 367.885C246.325 367.302 247.982 367.01 249.825 367.01C251.225 367.01 252.567 367.208 253.85 367.605C255.157 368.002 256.277 368.562 257.21 369.285C257.583 369.542 257.828 369.833 257.945 370.16C258.062 370.487 258.073 370.802 257.98 371.105C257.91 371.385 257.758 371.63 257.525 371.84C257.315 372.027 257.047 372.132 256.72 372.155C256.393 372.155 256.043 372.027 255.67 371.77C254.853 371.14 253.955 370.685 252.975 370.405C252.018 370.102 250.992 369.95 249.895 369.95C248.098 369.95 246.57 370.335 245.31 371.105C244.073 371.852 243.128 372.948 242.475 374.395C241.845 375.818 241.53 377.568 241.53 379.645C241.53 381.698 241.845 383.46 242.475 384.93C243.128 386.377 244.073 387.485 245.31 388.255C246.57 389.002 248.098 389.375 249.895 389.375C250.992 389.375 252.03 389.223 253.01 388.92C254.013 388.617 254.935 388.15 255.775 387.52C256.148 387.263 256.487 387.147 256.79 387.17C257.117 387.193 257.385 387.298 257.595 387.485C257.805 387.648 257.945 387.882 258.015 388.185C258.108 388.465 258.108 388.757 258.015 389.06C257.922 389.363 257.712 389.632 257.385 389.865C256.428 390.682 255.285 391.3 253.955 391.72C252.648 392.117 251.272 392.315 249.825 392.315ZM265.708 392.245C265.195 392.245 264.798 392.105 264.518 391.825C264.238 391.545 264.098 391.137 264.098 390.6V376.39C264.098 375.877 264.238 375.48 264.518 375.2C264.798 374.92 265.195 374.78 265.708 374.78C266.221 374.78 266.606 374.92 266.863 375.2C267.143 375.48 267.283 375.877 267.283 376.39V381.955H270.293L275.333 375.48C275.566 375.153 275.835 374.955 276.138 374.885C276.441 374.792 276.733 374.792 277.013 374.885C277.293 374.955 277.526 375.107 277.713 375.34C277.9 375.573 277.993 375.842 277.993 376.145C277.993 376.448 277.865 376.763 277.608 377.09L272.848 383.285L272.043 382.305C272.673 382.375 273.233 382.538 273.723 382.795C274.213 383.052 274.68 383.437 275.123 383.95C275.566 384.463 276.045 385.152 276.558 386.015L278.938 390.075C279.148 390.425 279.218 390.752 279.148 391.055C279.101 391.358 278.961 391.615 278.728 391.825C278.518 392.012 278.261 392.128 277.958 392.175C277.655 392.245 277.351 392.21 277.048 392.07C276.745 391.953 276.488 391.72 276.278 391.37L273.618 386.89C273.245 386.26 272.883 385.77 272.533 385.42C272.183 385.07 271.798 384.825 271.378 384.685C270.958 384.545 270.445 384.475 269.838 384.475H267.283V390.6C267.283 391.137 267.143 391.545 266.863 391.825C266.606 392.105 266.221 392.245 265.708 392.245ZM286.119 398.545C285.629 398.545 285.244 398.405 284.964 398.125C284.684 397.845 284.544 397.448 284.544 396.935V376.32C284.544 375.783 284.684 375.387 284.964 375.13C285.244 374.85 285.629 374.71 286.119 374.71C286.633 374.71 287.018 374.85 287.274 375.13C287.554 375.387 287.694 375.783 287.694 376.32V379.505L287.309 378.875C287.683 377.592 288.418 376.565 289.514 375.795C290.611 375.025 291.929 374.64 293.469 374.64C294.986 374.64 296.304 375.002 297.424 375.725C298.544 376.425 299.419 377.44 300.049 378.77C300.679 380.077 300.994 381.64 300.994 383.46C300.994 385.257 300.679 386.832 300.049 388.185C299.443 389.515 298.568 390.542 297.424 391.265C296.304 391.965 294.986 392.315 293.469 392.315C291.953 392.315 290.646 391.93 289.549 391.16C288.453 390.39 287.718 389.375 287.344 388.115H287.729V396.935C287.729 397.448 287.589 397.845 287.309 398.125C287.029 398.405 286.633 398.545 286.119 398.545ZM292.734 389.795C293.738 389.795 294.613 389.55 295.359 389.06C296.129 388.57 296.724 387.858 297.144 386.925C297.564 385.992 297.774 384.837 297.774 383.46C297.774 381.407 297.319 379.843 296.409 378.77C295.499 377.697 294.274 377.16 292.734 377.16C291.708 377.16 290.809 377.405 290.039 377.895C289.293 378.362 288.709 379.062 288.289 379.995C287.893 380.928 287.694 382.083 287.694 383.46C287.694 385.513 288.149 387.088 289.059 388.185C289.969 389.258 291.194 389.795 292.734 389.795ZM308.682 392.245C308.379 392.245 308.111 392.187 307.877 392.07C307.667 391.953 307.504 391.767 307.387 391.51C307.271 391.253 307.212 390.927 307.212 390.53V376.25C307.212 375.76 307.341 375.387 307.597 375.13C307.854 374.85 308.216 374.71 308.682 374.71C309.126 374.71 309.476 374.85 309.732 375.13C309.989 375.387 310.117 375.76 310.117 376.25V388.885H309.207L319.077 375.725C319.264 375.468 319.497 375.235 319.777 375.025C320.057 374.815 320.431 374.71 320.897 374.71C321.224 374.71 321.492 374.768 321.702 374.885C321.912 375.002 322.064 375.188 322.157 375.445C322.274 375.678 322.332 375.993 322.332 376.39V390.705C322.332 391.172 322.204 391.545 321.947 391.825C321.714 392.105 321.376 392.245 320.932 392.245C320.442 392.245 320.069 392.105 319.812 391.825C319.579 391.545 319.462 391.172 319.462 390.705V378.035H320.372L310.502 391.23C310.316 391.487 310.082 391.72 309.802 391.93C309.522 392.14 309.149 392.245 308.682 392.245ZM331.149 392.245C330.635 392.245 330.239 392.105 329.959 391.825C329.679 391.545 329.539 391.137 329.539 390.6V376.32C329.539 375.783 329.679 375.387 329.959 375.13C330.239 374.85 330.635 374.71 331.149 374.71C331.662 374.71 332.047 374.85 332.304 375.13C332.584 375.387 332.724 375.783 332.724 376.32V381.955H341.614V376.32C341.614 375.783 341.742 375.387 341.999 375.13C342.279 374.85 342.675 374.71 343.189 374.71C343.702 374.71 344.099 374.85 344.379 375.13C344.659 375.387 344.799 375.783 344.799 376.32V390.6C344.799 391.137 344.659 391.545 344.379 391.825C344.099 392.105 343.702 392.245 343.189 392.245C342.675 392.245 342.279 392.105 341.999 391.825C341.742 391.545 341.614 391.137 341.614 390.6V384.51H332.724V390.6C332.724 391.137 332.595 391.545 332.339 391.825C332.082 392.105 331.685 392.245 331.149 392.245ZM353.646 392C353.11 392 352.701 391.86 352.421 391.58C352.141 391.3 352.001 390.892 352.001 390.355V376.32C352.001 375.783 352.13 375.387 352.386 375.13C352.666 374.85 353.04 374.71 353.506 374.71C354.02 374.71 354.405 374.85 354.661 375.13C354.918 375.387 355.046 375.783 355.046 376.32V389.445H361.871V376.32C361.871 375.783 362 375.387 362.256 375.13C362.536 374.85 362.91 374.71 363.376 374.71C363.89 374.71 364.275 374.85 364.531 375.13C364.788 375.387 364.916 375.783 364.916 376.32V389.445H371.741V376.32C371.741 375.783 371.87 375.387 372.126 375.13C372.406 374.85 372.78 374.71 373.246 374.71C373.736 374.71 374.11 374.85 374.366 375.13C374.646 375.387 374.786 375.783 374.786 376.32V390.355C374.786 390.892 374.635 391.3 374.331 391.58C374.051 391.86 373.655 392 373.141 392H353.646ZM389.229 392.315C387.549 392.315 386.091 391.953 384.854 391.23C383.617 390.507 382.661 389.48 381.984 388.15C381.307 386.82 380.969 385.257 380.969 383.46C380.969 382.107 381.156 380.893 381.529 379.82C381.926 378.723 382.486 377.79 383.209 377.02C383.932 376.25 384.796 375.667 385.799 375.27C386.826 374.85 387.969 374.64 389.229 374.64C390.909 374.64 392.367 375.002 393.604 375.725C394.841 376.448 395.797 377.475 396.474 378.805C397.151 380.112 397.489 381.663 397.489 383.46C397.489 384.813 397.291 386.038 396.894 387.135C396.521 388.232 395.972 389.165 395.249 389.935C394.526 390.705 393.651 391.3 392.624 391.72C391.621 392.117 390.489 392.315 389.229 392.315ZM389.229 389.795C390.256 389.795 391.142 389.55 391.889 389.06C392.659 388.57 393.242 387.858 393.639 386.925C394.059 385.992 394.269 384.837 394.269 383.46C394.269 381.407 393.814 379.843 392.904 378.77C391.994 377.697 390.769 377.16 389.229 377.16C388.226 377.16 387.339 377.405 386.569 377.895C385.822 378.362 385.239 379.062 384.819 379.995C384.399 380.928 384.189 382.083 384.189 383.46C384.189 385.513 384.644 387.088 385.554 388.185C386.487 389.258 387.712 389.795 389.229 389.795ZM408.909 392.245C408.396 392.245 407.999 392.105 407.719 391.825C407.439 391.545 407.299 391.137 407.299 390.6V377.51H402.329C401.396 377.51 400.929 377.078 400.929 376.215C400.929 375.818 401.057 375.515 401.314 375.305C401.571 375.072 401.909 374.955 402.329 374.955H415.419C416.376 374.955 416.854 375.375 416.854 376.215C416.854 376.635 416.726 376.962 416.469 377.195C416.236 377.405 415.886 377.51 415.419 377.51H410.484V390.6C410.484 391.137 410.344 391.545 410.064 391.825C409.807 392.105 409.422 392.245 408.909 392.245Z" fill="#595959"/>
</svg>
